<svg width="118" height="56" viewBox="0 0 118 56" fill="none" xmlns="http://www.w3.org/2000/svg">
<path d="M107.852 41.0193C107.852 42.6707 105.306 39.368 103.609 39.368C101.912 39.368 98.5185 42.6707 98.5185 41.0193C101.912 37.7167 101.948 31.1113 103.27 31.1113C104.592 31.1113 105.306 37.7167 107.852 41.0193Z" fill="#F5443B"/>
<path d="M19.4507 34.2427C19.4507 35.4124 19.1769 36.4204 18.6293 37.2667C18.1067 38.088 17.2356 38.8471 16.016 39.544C15.1947 40.0418 14.2364 40.4151 13.1413 40.664C12.0462 40.9129 10.9387 41.0373 9.81867 41.0373C8.67378 41.0373 7.25511 40.664 5.56267 39.9173C4.34311 39.32 3.37244 38.6107 2.65067 37.7893C1.95378 36.968 1.60533 36.072 1.60533 35.1013C1.60533 34.4293 1.75467 33.944 2.05333 33.6453C2.352 33.3218 2.83733 33.16 3.50933 33.16C3.85778 33.16 4.21867 33.3093 4.592 33.608C4.96533 33.8818 5.18933 34.1556 5.264 34.4293C5.61244 35.4498 6.22222 36.2338 7.09333 36.7813C7.96445 37.304 9.04711 37.5653 10.3413 37.5653C11.8347 37.5653 13.0791 37.2916 14.0747 36.744C15.0951 36.1964 15.6053 35.4622 15.6053 34.5413C15.6053 33.6453 15.0578 32.8489 13.9627 32.152C12.8676 31.4551 11.7476 30.9698 10.6027 30.696C8.96 30.248 7.504 29.7129 6.23467 29.0907C4.91556 28.4436 3.93244 27.6471 3.28533 26.7013C2.63822 25.7556 2.31467 24.76 2.31467 23.7147C2.31467 22.744 2.65067 21.7609 3.32267 20.7653C3.99467 19.7449 4.79111 19.0107 5.712 18.5627C6.20978 18.3138 7.056 18.0524 8.25067 17.7787C9.47022 17.48 10.3538 17.3307 10.9013 17.3307C11.6231 17.3307 12.4196 17.4178 13.2907 17.592C14.1618 17.7662 14.8711 18.0151 15.4187 18.3387C16.5138 18.9609 17.3227 19.5209 17.8453 20.0187C18.368 20.5164 18.6293 21.1387 18.6293 21.8853C18.6293 22.3333 18.4551 22.7316 18.1067 23.08C17.7831 23.4284 17.2107 23.6027 16.3893 23.6027C16.1902 23.6027 15.9911 23.5156 15.792 23.3413C15.5929 23.1671 15.344 22.9058 15.0453 22.5573C14.6471 22.0347 14.2613 21.6862 13.888 21.512C13.5147 21.3876 12.9671 21.2507 12.2453 21.1013C11.5484 20.952 10.9262 20.8773 10.3787 20.8773C9.78133 20.8773 9.15911 21.0018 8.512 21.2507C7.86489 21.4996 7.31733 21.8604 6.86933 22.3333C6.44622 22.7813 6.23467 23.304 6.23467 23.9013C6.23467 24.3991 6.45867 24.8347 6.90667 25.208C7.37956 25.5564 7.93956 25.8427 8.58667 26.0667C9.33333 26.3653 10.1422 26.6267 11.0133 26.8507C12.1582 27.1991 13.0916 27.5227 13.8133 27.8213C14.56 28.0951 15.2818 28.4436 15.9787 28.8667C17.1982 29.5884 18.0818 30.3351 18.6293 31.1067C19.1769 31.8533 19.4507 32.8987 19.4507 34.2427ZM24.8462 17.032C25.7173 17.1067 26.4764 17.3431 27.1235 17.7413C27.7707 18.1147 28.0942 18.6871 28.0942 19.4587C28.0942 20.0311 27.8204 20.4916 27.2729 20.84C26.7502 21.1636 26.1155 21.3253 25.3689 21.3253C24.6471 21.3253 24.1493 21.1387 23.8755 20.7653C23.6018 20.392 23.4649 20.0062 23.4649 19.608C23.4649 18.8613 23.5395 18.2391 23.6889 17.7413C23.8631 17.2436 24.2489 17.0071 24.8462 17.032ZM27.8329 33.5707V34.6533C27.8329 35.624 27.8578 36.5449 27.9075 37.416C27.9822 38.2622 28.0693 39.1209 28.1689 39.992C28.144 40.2409 27.9573 40.5022 27.6089 40.776C27.2604 41.0249 26.9493 41.1493 26.6755 41.1493C26.2027 41.1493 25.7173 41.0622 25.2195 40.888C24.7467 40.6889 24.4604 40.4524 24.3609 40.1787C24.2115 39.3822 24.1369 38.6729 24.1369 38.0507C24.1369 36.0098 24.0747 33.72 23.9502 31.1813C23.8507 28.9413 23.8009 27.3733 23.8009 26.4773C23.8009 26.0293 24.0249 25.6436 24.4729 25.32C24.9209 24.9964 25.3938 24.8347 25.8915 24.8347C26.6133 24.8347 27.1111 24.9964 27.3849 25.32C27.6835 25.6436 27.8329 26.1538 27.8329 26.8507V33.5707ZM49.5183 38.1253C49.6427 38.1751 49.8419 38.2373 50.1156 38.312C50.3894 38.3867 50.5885 38.4613 50.713 38.536C50.8374 38.6107 50.8996 38.7227 50.8996 38.872C50.9245 39.4693 50.7005 39.9671 50.2276 40.3653C49.7796 40.7387 49.2445 40.9253 48.6223 40.9253C47.6516 40.9253 46.8925 40.664 46.345 40.1413C45.7974 39.6187 45.3992 38.8222 45.1503 37.752C45.0507 37.3289 45.001 36.744 45.001 35.9973C45.001 35.5742 45.0259 34.8898 45.0756 33.944C45.1254 32.9484 45.1503 32.152 45.1503 31.5547C45.1503 30.6836 44.9014 29.9244 44.4036 29.2773C43.9307 28.6053 43.2587 28.2693 42.3876 28.2693C41.865 28.2693 41.3174 28.4311 40.745 28.7547C40.1725 29.0533 39.7743 29.4267 39.5503 29.8747C39.177 30.5964 38.9156 31.3804 38.7663 32.2267C38.4925 33.72 38.3556 35.2756 38.3556 36.8933C38.3556 37.6649 38.3681 38.2622 38.393 38.6853C38.393 38.7849 38.393 38.984 38.393 39.2827C38.4179 39.5564 38.393 39.8178 38.3183 40.0667C38.2685 40.2907 38.169 40.5022 38.0196 40.7013C37.8952 40.8258 37.6961 40.9253 37.4223 41C37.1734 41.0996 36.937 41.1493 36.713 41.1493C36.3645 41.1493 35.929 41 35.4063 40.7013C34.8836 40.4027 34.585 40.0667 34.5103 39.6933L34.473 39.0587C34.473 38.8347 34.4978 38.5733 34.5476 38.2747C34.8463 36.5324 34.9956 35.0142 34.9956 33.72C34.9956 33.1476 34.9832 32.6996 34.9583 32.376L34.921 30.6213C34.921 30.024 34.7716 29.4516 34.473 28.904C34.1743 28.3316 33.8258 28.0453 33.4276 28.0453C33.3032 28.0453 33.129 28.0951 32.905 28.1947C32.681 28.2693 32.4943 28.3067 32.345 28.3067C32.0961 28.3067 31.8223 28.1822 31.5236 27.9333C31.2498 27.6844 31.113 27.4231 31.113 27.1493C31.113 26.6267 31.2872 26.2036 31.6356 25.88C32.009 25.5813 32.3698 25.3449 32.7183 25.1707C33.0916 24.9964 33.5147 24.9093 33.9876 24.9093C34.3858 24.9093 34.7094 24.9467 34.9583 25.0213C35.2072 25.096 35.5432 25.2578 35.9663 25.5067C36.1903 25.6311 36.4516 25.9049 36.7503 26.328C37.049 26.7511 37.2978 27.3484 37.497 28.12C38.1441 26.9253 38.9405 26.0916 39.8863 25.6187C40.857 25.1209 42.089 24.872 43.5823 24.872C44.1547 24.872 44.7645 25.0587 45.4116 25.432C46.0836 25.8053 46.6561 26.2409 47.129 26.7387C47.577 27.2862 47.9503 27.9707 48.249 28.792C48.5476 29.5884 48.697 30.3102 48.697 30.9573C48.697 31.3307 48.6721 31.9404 48.6223 32.7867C48.5476 33.4587 48.5103 34.168 48.5103 34.9147C48.5103 36.6569 48.8463 37.7271 49.5183 38.1253ZM67.7903 41.1493C66.9441 41.1493 66.297 41.0249 65.849 40.776C65.401 40.5022 64.9157 40.0044 64.393 39.2827C63.7459 39.8551 62.7752 40.3156 61.481 40.664C60.2117 41.0124 59.1166 41.1867 58.1957 41.1867C56.6774 41.1867 55.4454 40.776 54.4997 39.9547C53.5788 39.1084 53.1183 37.8764 53.1183 36.2587C53.1183 35.5618 53.305 34.9271 53.6783 34.3547C54.0766 33.7573 54.5868 33.2347 55.209 32.7867C55.9059 32.3138 56.7272 31.9404 57.673 31.6667C58.6437 31.3929 59.5272 31.256 60.3237 31.256C61.6677 31.256 62.8623 31.3804 63.9077 31.6293V31.592C63.9077 30.248 63.5717 29.3271 62.8997 28.8293C62.2526 28.3067 61.2072 28.0453 59.7637 28.0453C58.8428 28.0453 58.0463 28.456 57.3743 29.2773C57.1254 29.6009 56.6028 29.7627 55.8063 29.7627C55.4081 29.7627 55.1094 29.6009 54.9103 29.2773C54.7361 28.9289 54.649 28.5804 54.649 28.232C54.649 27.5102 54.9477 26.888 55.545 26.3653C56.1672 25.8427 56.9139 25.4569 57.785 25.208C58.6561 24.9342 59.465 24.7973 60.2117 24.7973C60.9334 24.7973 61.7921 24.9467 62.7877 25.2453C63.7832 25.544 64.5921 25.9422 65.2143 26.44C65.961 27.0871 66.5335 27.8462 66.9317 28.7173C67.3548 29.5636 67.5663 30.4969 67.5663 31.5173C67.5663 31.8409 67.5414 32.3262 67.4917 32.9733C67.4419 33.72 67.417 34.3298 67.417 34.8027C67.417 35.0267 67.3921 35.3129 67.3423 35.6613C67.2926 36.1093 67.2677 36.4827 67.2677 36.7813C67.2677 37.1049 67.3672 37.416 67.5663 37.7147C67.7655 38.0133 68.0392 38.2622 68.3877 38.4613C68.7112 38.6356 68.9228 38.8222 69.0223 39.0213C69.1219 39.2204 69.1717 39.4444 69.1717 39.6933C69.1717 39.9422 69.0099 40.2533 68.6863 40.6267C68.3877 40.9751 68.089 41.1493 67.7903 41.1493ZM60.3237 34.0187C59.353 34.0187 58.4943 34.2053 57.7477 34.5787C57.001 34.952 56.6277 35.6116 56.6277 36.5573C56.6277 37.0302 56.7894 37.4284 57.113 37.752C57.4614 38.0756 57.8348 38.2373 58.233 38.2373C59.3032 38.2373 60.1992 38.1253 60.921 37.9013C61.6428 37.6773 62.5139 37.2667 63.5343 36.6693C63.6588 36.2711 63.7334 35.7111 63.7583 34.9893C63.7583 34.7156 63.7708 34.504 63.7957 34.3547C62.4517 34.1307 61.2943 34.0187 60.3237 34.0187ZM71.568 28.4187C71.3689 28.4187 71.1947 28.344 71.0453 28.1947C70.896 28.0204 70.8213 27.8213 70.8213 27.5973C70.8213 26.8756 71.0578 26.328 71.5307 25.9547C72.0036 25.5564 72.5885 25.3573 73.2853 25.3573C74.256 25.3573 75.0898 25.6187 75.7867 26.1413C76.5085 26.6391 76.8693 27.3609 76.8693 28.3067C76.8693 28.5556 76.8196 29.5013 76.72 31.144C76.6205 33.0356 76.5707 34.2924 76.5707 34.9147C76.5707 35.7858 76.7325 36.4951 77.056 37.0427C77.4045 37.5653 77.9396 37.8267 78.6613 37.8267C80.0551 37.8267 81.1253 37.0551 81.872 35.512C82.6436 33.944 83.1538 32.0276 83.4027 29.7627C83.5022 28.7671 83.6516 27.7218 83.8507 26.6267C83.9502 26.0293 84.0871 25.5938 84.2613 25.32C84.4356 25.0462 84.7716 24.9093 85.2693 24.9093C85.5929 24.9093 85.9662 24.984 86.3893 25.1333C86.8373 25.2827 87.1236 25.4818 87.248 25.7307C87.3973 26.104 87.472 26.5147 87.472 26.9627C87.472 27.5849 87.3849 28.3938 87.2107 29.3893C87.0116 30.3849 86.8747 31.4676 86.8 32.6373C86.7502 33.6827 86.912 34.7778 87.2853 35.9227C87.6587 37.0676 88.1938 37.8142 88.8907 38.1627C89.6871 38.5609 90.0853 38.9218 90.0853 39.2453C90.0853 39.768 89.8987 40.1787 89.5253 40.4773C89.152 40.776 88.7911 40.9253 88.4427 40.9253C87.5218 40.9253 86.688 40.5893 85.9413 39.9173C85.2196 39.2453 84.6969 38.4116 84.3733 37.416C83.8507 38.2124 83.3405 38.872 82.8427 39.3947C82.3698 39.8924 81.76 40.3156 81.0133 40.664C80.2667 40.9876 79.3458 41.1493 78.2507 41.1493C76.9565 41.1493 75.7742 40.6889 74.704 39.768C73.6587 38.8471 73.136 37.2667 73.136 35.0267C73.136 34.4044 73.1485 33.7449 73.1733 33.048C73.2231 32.3511 73.248 31.8533 73.248 31.5547C73.3227 30.6587 73.36 29.8373 73.36 29.0907C73.36 28.8667 73.2729 28.68 73.0987 28.5307C72.9493 28.3813 72.7751 28.3067 72.576 28.3067C72.4267 28.3067 72.2525 28.3316 72.0533 28.3813C71.8791 28.4062 71.7173 28.4187 71.568 28.4187ZM109.971 32.1147C110.121 31.5671 110.283 30.8204 110.457 29.8747C110.706 28.7547 110.905 27.9084 111.054 27.336C111.203 26.7636 111.403 26.2782 111.651 25.88C111.925 25.432 112.162 25.1333 112.361 24.984C112.585 24.8347 112.821 24.76 113.07 24.76C114.364 24.76 115.011 25.2578 115.011 26.2533C115.011 26.7511 114.812 27.6844 114.414 29.0533C113.095 33.0356 112.149 36.1218 111.577 38.312C111.328 39.2329 110.955 39.9422 110.457 40.44C109.959 40.9129 109.287 41.1493 108.441 41.1493C108.018 41.1493 107.582 40.9502 107.134 40.552C106.711 40.1289 106.363 39.6187 106.089 39.0213L105.678 38.0133C104.981 36.2462 104.459 34.8898 104.11 33.944C103.787 32.9733 103.575 32.1022 103.475 31.3307L103.139 32.5253C102.542 34.6658 101.92 36.6569 101.273 38.4987C100.949 39.4444 100.551 40.1289 100.078 40.552C99.6052 40.9502 98.9955 41.1493 98.2488 41.1493C97.8008 41.1493 97.4026 41.0498 97.0541 40.8507C96.7306 40.6516 96.4195 40.3156 96.1208 39.8427C95.7226 39.1956 95.3368 38.3244 94.9635 37.2293C94.615 36.1342 94.1048 34.4293 93.4328 32.1147C93.1092 31.1191 92.8106 30.0738 92.5368 28.9787C92.263 27.8587 92.1261 27.0747 92.1261 26.6267C92.1261 26.104 92.263 25.6933 92.5368 25.3947C92.8106 25.096 93.2088 24.9467 93.7315 24.9467C94.4035 24.9467 94.8764 25.0836 95.1501 25.3573C95.4239 25.6062 95.6728 25.992 95.8968 26.5147C96.0212 27.4107 96.295 28.68 96.7181 30.3227L97.5395 33.832C97.5892 34.1058 97.7386 34.6782 97.9875 35.5493L98.2861 36.632C98.8337 35.4622 99.2941 34.3422 99.6675 33.272C100.041 32.2018 100.451 30.8827 100.899 29.3147C100.924 29.2151 101.173 28.3564 101.646 26.7387C101.97 26.216 102.256 25.8302 102.505 25.5813C102.754 25.3076 103.003 25.1707 103.251 25.1707C103.749 25.1707 104.172 25.3324 104.521 25.656C104.894 25.9547 105.168 26.328 105.342 26.776C105.641 27.7467 105.902 28.6302 106.126 29.4267C106.226 29.7502 106.45 30.5342 106.798 31.7787C107.171 32.9982 107.507 34.0311 107.806 34.8773C108.105 35.7236 108.354 36.3209 108.553 36.6693L109.971 32.1147Z" fill="url(#paint0_linear_101_272)"/>
<path d="M29.0371 19.7037C29.0371 21.4219 27.6443 22.2963 25.926 22.2963C24.2078 22.2963 23.3334 21.4219 23.3334 19.7037C23.3334 17.9855 24.2078 17.1111 25.926 17.1111C27.6443 17.1111 29.0371 17.9855 29.0371 19.7037Z" fill="#F5443B"/>
<defs>
<linearGradient id="paint0_linear_101_272" x1="58.5926" y1="0" x2="58.5926" y2="56" gradientUnits="userSpaceOnUse">
<stop stop-color="#C7CAFE"/>
<stop offset="1" stop-color="#3D408F"/>
</linearGradient>
</defs>
</svg>
