<svg width="98" height="98" viewBox="0 0 98 98" fill="none" xmlns="http://www.w3.org/2000/svg">
<path d="M108 -117L215 -10.0001L108 96.9999C108 96.9999 89.5 53.5 59 38C28.5 22.5 1.00006 -10.0001 1.00006 -10.0001L108 -117Z" fill="#F5453D"/>
<path d="M90.4829 -122L195.258 -42.5009L109.862 70.0464C109.862 70.0464 66.3413 41.9968 78.3694 8.85935C90.3975 -24.2781 90.4829 -122 90.4829 -122Z" fill="#F54F47"/>
<path d="M46.3658 9.21933C35.2313 2.74691 30.0002 8.49859 24.4245 1.96651C16.3204 -7.5277 26.0431 -15.393 27.3919 -29.8593C34.3768 -35.6268 48.5338 -28.4045 54.3268 -21.3888C67.5003 -12.6801 57.5002 15.6917 46.3658 9.21933Z" fill="#F65D55"/>
<path d="M48.4219 14.411L49.7532 15.2638L51.3438 12.7807L52.7504 13.6817C54.4476 14.7689 56.0119 14.3337 56.9175 12.9199C57.8162 11.5169 57.5753 9.91009 55.8852 8.82747L53.1294 7.06217L48.4219 14.411ZM52.0448 11.6862L53.7481 9.02731L54.9681 9.80882C55.9656 10.4478 56.0622 11.2688 55.5611 12.051C55.06 12.8333 54.2624 13.1067 53.272 12.4723L52.0448 11.6862ZM57.1236 20.1369C58.7384 21.1713 60.4933 20.6912 61.5851 18.9867C62.6792 17.2787 62.3839 15.4802 60.7692 14.4459C59.1544 13.4115 57.3972 13.8952 56.3031 15.6032C55.2113 17.3077 55.5089 19.1025 57.1236 20.1369ZM57.7974 19.1009C56.9039 18.5285 56.9764 17.4515 57.6223 16.4432C58.2682 15.4349 59.2232 14.908 60.1166 15.4803C60.9958 16.0435 60.9164 17.1312 60.2705 18.1396C59.6246 19.1479 58.6765 19.664 57.7974 19.1009ZM59.6121 24.4941L60.9111 25.3262L62.7913 22.3909L62.8451 22.4254C62.7922 22.9583 62.8583 23.7952 63.8056 24.402C65.1046 25.2341 66.7367 24.8272 67.8998 23.0115C69.0767 21.1743 68.7145 19.5355 67.4407 18.7195C66.4683 18.0966 65.6881 18.4217 65.2356 18.6936L65.1603 18.6453L65.7441 17.7339L64.4667 16.9156L59.6121 24.4941ZM63.9752 20.4874C64.6602 19.4181 65.5631 19.0198 66.3992 19.5553C67.264 20.1093 67.2377 21.1299 66.5803 22.1562C65.9183 23.1896 64.9835 23.6535 64.1259 23.1042C63.297 22.5732 63.2902 21.5567 63.9752 20.4874ZM72.2493 26.405C71.7114 27.2446 70.8455 27.277 70.2714 26.9092C69.647 26.5093 69.5135 25.8013 69.9617 25.1016L72.081 21.7932L70.7821 20.9611L68.5341 24.4704C67.6859 25.7945 67.959 27.0272 69.0427 27.7213C69.868 28.25 70.7274 28.1882 71.374 27.7319L71.4314 27.7687L70.8039 28.7483L72.0634 29.5551L75.594 24.0435L74.295 23.2114L72.2493 26.405ZM79.4055 23.894L78.1066 23.0619L73.3991 30.4107L74.6981 31.2428L79.4055 23.894ZM77.5486 33.2256C78.4134 33.7796 79.1898 33.7051 79.7231 33.3939L79.7662 33.4215L79.2812 34.1786L80.5299 34.9785L82.8929 31.2898C83.8261 29.8329 82.9188 28.6343 81.8674 27.9608C80.7084 27.2184 79.4875 27.1651 78.5568 27.9859L79.6593 28.9351C80.0299 28.641 80.6028 28.5526 81.2379 28.9594C81.8407 29.3456 81.9732 29.8656 81.6261 30.4075L81.6123 30.429C81.3732 30.8022 80.9706 30.5696 79.9315 30.0507C78.7887 29.4806 77.5614 29.1448 76.7661 30.3864C76.072 31.47 76.4972 32.5522 77.5486 33.2256ZM78.4973 32.4872C77.9555 32.1401 77.7265 31.6443 78.0322 31.1671C78.3517 30.6683 78.9192 30.7383 79.5534 31.0281C79.9242 31.1998 80.6611 31.5504 80.9171 31.5221L80.5011 32.1716C80.108 32.7852 79.2795 32.9883 78.4973 32.4872ZM81.8361 35.8152L83.135 36.6473L85.2106 33.4071C85.6589 32.7073 86.5035 32.55 87.2176 33.0075C87.4365 33.1477 87.6839 33.3618 87.7722 33.469L88.5376 32.2741C88.433 32.1767 88.2376 32.0313 88.0941 31.9394C87.4626 31.5348 86.7052 31.5558 86.0951 32.0658L86.0377 32.029L86.6262 31.1104L85.3667 30.3036L81.8361 35.8152Z" fill="white" fill-opacity="0.8"/>
</svg>
